<?xml version="1.0" encoding="utf-8"?>
<!-- Generator: Adobe Illustrator 26.4.1, SVG Export Plug-In . SVG Version: 6.00 Build 0)  -->
<svg version="1.1" id="Layer_1" xmlns="http://www.w3.org/2000/svg" xmlns:xlink="http://www.w3.org/1999/xlink" x="0px" y="0px"
	 viewBox="0 0 1387.7 279.3" style="enable-background:new 0 0 1387.7 279.3;" xml:space="preserve">
<style type="text/css">
	.st0{enable-background:new    ;}
	.st1{fill:#B11917;}
</style>
<g class="st0">
	<path class="st1" d="M15.9,107.7h13.5v-82H15.9V7.6h88.2v33.8H84.7V25.6h-35v31.6h35.8v17.3H49.6v33.4h35.2V92.1h19.4v33.8H15.9
		V107.7z"/>
</g>
<g class="st0">
	<path class="st1" d="M186.4,107.7h12.8l35-42.8l-32-39.2h-13.5V7.6h49.4v17.8h-12.4l20.8,28.4l21-28.4h-13.8V7.6h49.4v18.2h-13.5
		L258,64.6l34.1,43.1h12.8v18.2h-48.5V108h12.2l-23-32.2L221.5,108H235v17.8h-48.5V107.7z"/>
	<path class="st1" d="M495.2,107.7h13.5v-82h-13.5V7.6h49.4v18.2H529v82.1h32.5V91.2h19.6v34.7h-85.9V107.7z"/>
	<path class="st1" d="M663.6,107.7H678v-82h-14.4V7.6h49.1v18.2h-14.4v82h14.4v18.2h-49.1V107.7z"/>
	<path class="st1" d="M795.9,107.7h13.5v-82h-13.5V7.6h47.3c28.9,0,43.1,13.3,43.1,31.1c0,13.7-8.4,22.5-20.1,26.4
		c14.7,4.3,23.5,12.9,23.5,27.7c0,19.6-15.8,33.1-44.6,33.1h-49.2V107.7z M843.3,57.7c14.2,0,22.1-6.5,22.1-16.7
		c0-10.1-8.3-15.6-22.6-15.6h-13.3v32.4H843.3z M845.5,108c14,0,23.4-5.8,23.4-17.1c0-11-8.6-17.1-23.9-17.1h-15.5V108H845.5z"/>
</g>
<g class="st0">
	<path class="st1" d="M973.8,107.7h13.5v-82h-13.5V7.6h45.8c27.1,0,46.6,11.7,46.6,35.8c0,15.3-9.3,27-22.3,32.2l18.2,32.2h13.5
		v18.2h-27.3l-23.7-44.9c-2.5,0.2-4.9,0.4-7.2,0.4c-3.8,0-7.2,0-9.7-0.2v26.6h14.7v18.2h-48.5V107.7z M1045.1,44.1
		c0-12.4-10.2-18.3-26.6-18.3h-11v37.9c2.2,0.2,5,0.4,11.5,0.4C1034.3,64,1045.1,56.5,1045.1,44.1z"/>
</g>
<g class="st0">
	<path class="st1" d="M1155.2,107.7h14.4v-82h-14.4V7.6h49.1v18.2h-14.4v82h14.4v18.2h-49.1V107.7z"/>
</g>
<g class="st0">
	<path class="st1" d="M1288.1,100.5c0-8.4,5-14,12.4-14c7.9,0,12.9,5.9,12.9,11.7c0,2.9-0.5,5-1.6,7.2c4.3,3.1,11,5,18.7,5
		c12.9,0,21.2-5.8,21.2-16c0-9.7-9.9-14.4-21.7-18.5C1308,68,1292.6,61,1292.6,39c0-18.9,15.3-33.6,39.2-33.6
		c22.1,0,39.2,11.3,39.2,25.5c0,8.4-5.2,13.3-12,13.3c-8.3,0-12.9-6.1-12.9-12c0-2.9,0.5-4.1,1.3-5.6c-3.2-2-8.3-3.6-15.6-3.6
		c-11.7,0-18.5,5.9-18.5,14.6c0,9.7,9.9,14,21.7,18.3c21.2,7.5,37.2,14.9,37.2,36.8c0,22.5-17.4,35.2-41.7,35.2
		C1307,128,1288.1,114.9,1288.1,100.5z"/>
</g>
<g class="st0">
	<path class="st1" d="M4.1,261.6h7l20.3-56.5h-8.9v-12.4h46v12.4h-8.9l20.3,56.5h7v12.5H55.6v-12.4H65l-4.6-13.3H30l-4.6,13.3h9.9
		v12.4H4.1V261.6z M56.6,236.8l-11.4-32l-11.4,32H56.6z"/>
</g>
<g class="st0">
	<path class="st1" d="M138.7,261.6h9.3v-56.3h-9.3v-12.5h30.8c29.4,0,46.8,15.3,46.8,39.9c0,24.8-16.4,41.4-48.3,41.4h-29.3V261.6z
		 M170,261.6c21,0,31.9-11.4,31.9-28.8c0-17.8-12.6-27.6-32.9-27.6h-7v56.3H170z"/>
</g>
<g class="st0">
	<path class="st1" d="M313.6,261.6h9.6l2.6-56.3h-10.1v-12.5H338l25,45.2l25-45.2H410v12.5h-10.1l2.6,56.3h9.6v12.5h-33.4v-12.5h9.8
		l-1.6-41.9l-23.2,40.8h-1.9l-23.2-40.8l-1.6,41.9h9.8v12.5h-33.1V261.6z"/>
	<path class="st1" d="M475.7,261.6h9.3v-56.3h-9.3v-12.5h60.7V216h-13.3v-10.9H499v21.7h24.6v11.9H499v23h24.2v-10.9h13.3v23.2
		h-60.8V261.6z"/>
</g>
<g class="st0">
	<path class="st1" d="M602.6,261.6h9.6l2.6-56.3h-10.1v-12.5H627l25,45.2l25-45.2H699v12.5h-10.1l2.6,56.3h9.6v12.5h-33.4v-12.5h9.8
		l-1.6-41.9l-23.2,40.8h-1.9l-23.2-40.8l-1.6,41.9h9.8v12.5h-33.1V261.6z"/>
</g>
<g class="st0">
	<path class="st1" d="M765.1,233.5c0-23.8,17.3-42.1,42-42.1c24.6,0,41.4,18.4,41.4,42.1c0,23.8-17.3,42.1-42,42.1
		C781.9,275.6,765.1,257.2,765.1,233.5z M834,233.5c0-16.9-11.5-29.2-27.2-29.2c-15.8,0-27.3,12.1-27.3,29.2
		c0,16.9,11.5,29.2,27.3,29.2C822.5,262.6,834,250.5,834,233.5z"/>
	<path class="st1" d="M913.7,261.6h9.3v-56.3h-9.3v-12.5h31.5c18.7,0,32,8,32,24.6c0,10.5-6.4,18.5-15.3,22.1l12.5,22.1h9.3v12.5
		h-18.8l-16.3-30.9c-1.7,0.1-3.3,0.2-4.9,0.2c-2.6,0-4.9,0-6.7-0.1v18.3h10.1v12.5h-33.4V261.6z M962.8,217.9
		c0-8.5-7-12.6-18.3-12.6h-7.5v26.1c1.5,0.1,3.5,0.2,7.9,0.2C955.3,231.6,962.8,226.4,962.8,217.9z"/>
	<path class="st1" d="M1045.3,261.6h9.9v-56.3h-9.9v-12.5h33.7v12.5h-9.9v56.3h9.9v12.5h-33.7V261.6z"/>
</g>
<g class="st0">
	<path class="st1" d="M1142.1,261.6h7l20.3-56.5h-8.9v-12.4h46v12.4h-8.9l20.3,56.5h7v12.5h-31.3v-12.4h9.4l-4.6-13.3H1168
		l-4.6,13.3h9.9v12.4h-31.3V261.6z M1194.6,236.8l-11.4-32l-11.4,32H1194.6z"/>
</g>
<g class="st0">
	<path class="st1" d="M1284.6,261.6h9.6l2.6-56.3h-10.1v-12.5h22.2l25,45.2l25-45.2h22.1v12.5h-10.1l2.6,56.3h9.6v12.5h-33.4v-12.5
		h9.8l-1.6-41.9l-23.2,40.8h-1.9l-23.2-40.8l-1.6,41.9h9.8v12.5h-33.1V261.6z"/>
</g>
</svg>
